<svg xmlns="http://www.w3.org/2000/svg" width="100" height="117" fill="none" viewBox="0 0 100 117"><path fill="#7D6F5D" fill-rule="evenodd" d="M92.692 82.003c-5.28 8.229-31.778 7.48-42.743 7.48-10.964 0-35.128 0-42.742-7.48C.507 75.341 0 52.011 0 44.741c0-7.271.508-30.6 7.207-37.167C14.82 0 38.985 0 49.949 0c10.965 0 35.128 0 42.743 7.574C99.392 14.14 100 37.468 100 44.741c0 7.27-.608 30.6-7.308 37.262zm-5.28-69.176c-4.57-4.545-23.047-5.352-37.463-5.352s-32.894.807-37.36 5.352C9.035 16.361 7.41 32.722 7.41 44.741c0 12.018 1.625 28.38 5.178 31.914 4.466 4.543 22.944 5.452 37.36 5.452s32.893-.91 37.463-5.452c3.553-3.535 5.075-19.896 5.075-31.914.002-12.019-1.521-28.38-5.075-31.914zm-7.716 41.608H20.203l-3.656-28.681 18.174 12.522 15.228-15.248 15.33 15.25 18.174-12.523-3.757 28.68zm-1.42 11.211h-56.55l-.914-6.261h58.276l-.813 6.261zM64.67 45.751L49.95 31.208 35.23 45.751l-11.168-7.877 1.32 10.402h49.137l1.42-10.402-11.267 7.877z" clip-rule="evenodd"/><path fill="#7D6F5D" d="M28.853 110.263c0 .494.069.932.206 1.313.15.368.343.678.58.932.25.241.53.424.842.551.311.127.636.191.972.191a5.13 5.13 0 0 0 1.123-.106c.324-.071.61-.169.86-.297.137-.07.287-.155.45-.254a1.55 1.55 0 0 1 .523-.19c.337-.071.642-.043.916.084.275.127.505.368.693.721.236.437.293.875.168 1.313-.112.438-.33.805-.655 1.102a4.658 4.658 0 0 1-1.89 1.038 7.422 7.422 0 0 1-2.188.339c-.81 0-1.602-.12-2.375-.36a5.82 5.82 0 0 1-2.076-1.144c-.6-.537-1.085-1.215-1.46-2.034-.361-.833-.542-1.836-.542-3.009v-4.406c0-1.173.18-2.168.543-2.988.374-.833.86-1.511 1.459-2.034a5.658 5.658 0 0 1 2.076-1.165 7.965 7.965 0 0 1 2.375-.36c.836 0 1.565.099 2.189.297.636.197 1.135.445 1.496.741.387.311.655.699.805 1.165.15.452.112.904-.112 1.356-.188.368-.437.629-.749.784-.312.156-.63.198-.954.127a2.415 2.415 0 0 1-.58-.19 7.357 7.357 0 0 0-.449-.255 3.027 3.027 0 0 0-.71-.211 5.45 5.45 0 0 0-.936-.064c-.336 0-.66.064-.972.191a2.476 2.476 0 0 0-.842.572c-.237.24-.43.551-.58.932-.137.367-.206.798-.206 1.292v4.026zm12.7-9.005c.187-.593.505-1.031.954-1.313a2.655 2.655 0 0 1 1.459-.445c.474 0 .929.148 1.365.445.45.297.761.734.936 1.313l4.882 15.382h-4.115l-.73-2.627h-4.807l-.711 2.627h-4.04l4.807-15.382zm.916 9.174h2.862l-1.421-5.275-1.44 5.275zm9.681 6.208v-13.708c0-.607.044-1.123.131-1.546.1-.424.262-.77.486-1.039a1.83 1.83 0 0 1 .898-.572c.374-.127.842-.19 1.403-.19h6.23c.273 0 .504.056.691.17a1.5 1.5 0 0 1 .468.444c.125.184.212.389.262.615.062.226.093.444.093.656 0 .212-.03.431-.093.657a1.76 1.76 0 0 1-.262.593 1.33 1.33 0 0 1-.468.424 1.466 1.466 0 0 1-.692.148h-4.751c-.212 0-.355.043-.43.127-.075.071-.112.234-.112.488v2.669h4.807c.274 0 .505.057.692.17.187.113.343.261.468.445.124.183.212.388.262.614.062.226.093.445.093.657 0 .212-.031.431-.093.657-.05.212-.138.409-.262.593a1.344 1.344 0 0 1-.468.424 1.478 1.478 0 0 1-.692.148h-4.807v6.356H52.15zm15.873-10.466h5.106c.275 0 .505.056.693.169a1.5 1.5 0 0 1 .467.445c.125.184.212.389.262.615a2.234 2.234 0 0 1 0 1.271c-.05.212-.137.409-.262.593a1.344 1.344 0 0 1-.467.424 1.466 1.466 0 0 1-.693.148h-5.106v2.479c0 .254.037.424.112.508.075.071.218.106.43.106h4.92c.274 0 .505.057.692.17.2.099.355.24.468.423.124.17.212.368.261.594.063.212.094.423.094.635 0 .212-.031.431-.094.657a1.75 1.75 0 0 1-.261.614 1.49 1.49 0 0 1-.468.445c-.187.113-.418.17-.692.17h-6.379c-.56 0-1.028-.057-1.403-.17a1.964 1.964 0 0 1-.898-.593c-.224-.268-.386-.614-.486-1.038-.087-.424-.13-.939-.13-1.547v-10.36c0-.607.043-1.123.13-1.546.1-.424.262-.77.486-1.039a1.83 1.83 0 0 1 .898-.572c.374-.127.842-.19 1.403-.19h6.192c.274 0 .505.056.692.17.187.112.343.261.468.444.124.184.212.389.261.615.063.226.094.444.094.656 0 .212-.031.431-.094.657-.05.212-.137.41-.261.593-.113.17-.269.311-.468.424a1.466 1.466 0 0 1-.692.148h-4.733c-.212 0-.355.043-.43.127-.075.071-.112.234-.112.488v2.267z"/></svg>