<svg xmlns="http://www.w3.org/2000/svg">
  <symbol id="close-button" viewBox="0 0 40 40">
    <path fill="#fff" fill-rule="evenodd"
      d="M31 11.082L29.918 10 20.5 19.417 11.082 10 10 11.083l9.418 9.417L10 29.917l1.082 1.081 9.418-9.416 9.418 9.417L31 29.916 21.582 20.5 31 11.082z"
      clip-rule="evenodd" />
  </symbol>
  <symbol id="down-button" viewBox="0 0 40 40">
    <path fill="#FFFCF9" d="M20 25.22L31.836 13 33 14.202 20 27.625 7 14.202 8.164 13 20 25.22z" />
  </symbol>
  <symbol id="down-button-dark" viewBox="0 0 40 40">
    <path fill="##282725" d="M20 25.22L31.836 13 33 14.202 20 27.625 7 14.202 8.164 13 20 25.22z" />
  </symbol>
  <symbol id="decrease" viewBox="0 0 40 40">
    <path fill="#FFFCF9" fill-rule="evenodd"
      d="M10 32a2 2 0 0 1-2-2V10a2 2 0 0 1 2-2h20a2 2 0 0 1 2 2v20a2 2 0 0 1-2 2H10zm10-4.8l6.24-6.48h-4.329V12.8h-4.017v7.92H13.76L20 27.2z"
      clip-rule="evenodd" />
  </symbol>
  <symbol id="down-arrow" viewBox="0 0 40 40">
    <path fill="#FFFCF9" d="M20.5 29L31 14H10l10.5 15z" />
  </symbol>
  <symbol id="increase" viewBox="0 0 40 40">
    <path fill="#6B56E7" fill-rule="evenodd"
      d="M10 8a2 2 0 0 0-2 2v20a2 2 0 0 0 2 2h20a2 2 0 0 0 2-2V10a2 2 0 0 0-2-2H10zm10 4.8l6.24 6.48h-4.329v7.92h-4.017v-7.92H13.76L20 12.8z"
      clip-rule="evenodd" />
  </symbol>
  <symbol id="new" viewBox="0 0 40 40">
    <path fill="#FFFCF9" fill-rule="evenodd"
      d="M10 32a2 2 0 0 1-2-2V10a2 2 0 0 1 2-2h20a2 2 0 0 1 2 2v20a2 2 0 0 1-2 2H10zm7.425-13.834v9.164H14V12h2.931l6.166 9.074h.123V12h3.437v15.33h-2.92l-6.177-9.164h-.135z"
      clip-rule="evenodd" />
  </symbol>
  <symbol id="plus-button" viewBox="0 0 40 40">
    <path fill="#FFFCF9" d="M32 19.25v1.5H20.75V32h-1.5V20.75H8v-1.5h11.25V8h1.5v11.25H32z" />
  </symbol>
  <symbol id="mouse-hover" viewBox="0 0 32 32">
    <path fill="#fff"
      d="M11.3 20.4c-.3-.4-.6-1.1-1.2-2-.3-.5-1.2-1.5-1.5-1.9-.2-.4-.2-.6-.1-1 .1-.6.7-1.1 1.4-1.1.5 0 1 .4 1.4.7.2.2.5.6.7.8.2.2.2.3.4.5.2.3.3.5.2.1-.1-.5-.2-1.3-.4-2.1-.1-.6-.2-.7-.3-1.1-.1-.5-.2-.8-.3-1.3-.1-.3-.2-1.1-.3-1.5-.1-.5-.1-1.4.3-1.8.3-.3.9-.4 1.3-.2.5.3.8 1 .9 1.3.2.5.4 1.2.5 2 .2 1 .5 2.5.5 2.8 0-.4-.1-1.1 0-1.5.1-.3.3-.7.7-.8.3-.1.6-.1.9-.1.3.1.6.3.8.5.4.6.4 1.9.4 1.8.1-.4.1-1.2.3-1.6.1-.2.5-.4.7-.5.3-.1.7-.1 1 0 .2 0 .6.3.7.5.2.3.3 1.3.4 1.7 0 .1.1-.4.3-.7.4-.6 1.8-.8 1.9.6v2.3c0 .4-.1 1.3-.2 1.7-.1.3-.4 1-.7 1.4 0 0-1.1 1.2-1.2 1.8-.1.6-.1.6-.1 1s.1.9.1.9-.8.1-1.2 0c-.4-.1-.9-.8-1-1.1-.2-.3-.5-.3-.7 0-.2.4-.7 1.1-1.1 1.1-.7.1-2.1 0-3.1 0 0 0 .2-1-.2-1.4l-1.1-1.1-1.1-.7z" />
    <path stroke="#000" stroke-linecap="round" stroke-linejoin="round" stroke-width=".75"
      d="M11.3 20.4c-.3-.4-.6-1.1-1.2-2-.3-.5-1.2-1.5-1.5-1.9-.2-.4-.2-.6-.1-1 .1-.6.7-1.1 1.4-1.1.5 0 1 .4 1.4.7.2.2.5.6.7.8.2.2.2.3.4.5.2.3.3.5.2.1-.1-.5-.2-1.3-.4-2.1-.1-.6-.2-.7-.3-1.1-.1-.5-.2-.8-.3-1.3-.1-.3-.2-1.1-.3-1.5-.1-.5-.1-1.4.3-1.8.3-.3.9-.4 1.3-.2.5.3.8 1 .9 1.3.2.5.4 1.2.5 2 .2 1 .5 2.5.5 2.8 0-.4-.1-1.1 0-1.5.1-.3.3-.7.7-.8.3-.1.6-.1.9-.1.3.1.6.3.8.5.4.6.4 1.9.4 1.8.1-.4.1-1.2.3-1.6.1-.2.5-.4.7-.5.3-.1.7-.1 1 0 .2 0 .6.3.7.5.2.3.3 1.3.4 1.7 0 .1.1-.4.3-.7.4-.6 1.8-.8 1.9.6v2.3c0 .4-.1 1.3-.2 1.7-.1.3-.4 1-.7 1.4 0 0-1.1 1.2-1.2 1.8-.1.6-.1.6-.1 1s.1.9.1.9-.8.1-1.2 0c-.4-.1-.9-.8-1-1.1-.2-.3-.5-.3-.7 0-.2.4-.7 1.1-1.1 1.1-.7.1-2.1 0-3.1 0 0 0 .2-1-.2-1.4l-1.1-1.1-1.1-.7z" />
    <path stroke="#000" stroke-linecap="round" stroke-width=".75" d="M19.6 20.7v-3.4m-2 3.4l-.1-3.4m-1.9 0v3.4" />
  </symbol>
  <symbol id="mouse-not-allowed" viewBox="0 0 19 33">
    <path stroke="#231F20"
      d="M9.5 14.5c-5 0-9 4-9 9s4 9 9 9 9-4 9-9-4-9-9-9zm0 15c-3.3 0-6-2.7-6-6 0-1.1.3-2.2.8-3l8.2 8.2c-.8.5-1.9.8-3 .8zm5.3-3.1l-8.2-8.2c.9-.5 1.9-.8 3.1-.8 3.3 0 6 2.7 6 6-.1 1.1-.4 2.2-.9 3z"
      opacity=".18" />
    <path fill="#fff"
      d="M9.5 15C4.8 15 1 18.8 1 23.5S4.8 32 9.5 32s8.5-3.8 8.5-8.5S14.2 15 9.5 15zm3.3 14.1c-1 .6-2.1.9-3.3.9C5.9 30 3 27.1 3 23.5c0-1.2.3-2.3.9-3.3l.3-.6 9.1 9.1-.5.4zm2.4-2.4l-.3.6-9.1-9.1.6-.3c1-.6 2.1-.9 3.3-.9 3.6 0 6.5 2.9 6.5 6.5-.1 1.1-.4 2.2-1 3.2zM0 16.4V.4L11.6 12h-7l-.2.1L0 16.4z" />
    <path d="M1 2.8V14l3-2.9.1-.1h5.1L1 2.8z" />
  </symbol>
  <symbol id="next-button" viewBox="0 0 40 40">
    <path fill="#282725" d="M13 30.875l10.898-10.91L13 9.055 14.055 8 26.03 19.965 14.055 31.93 13 30.875z" />
  </symbol>
  <symbol id="play-button" viewBox="0 0 40 40">
    <path fill="#FFFCF9" d="M28 20.5L13 10v21l15-10.5z" />
  </symbol>
  <symbol id="prev-button" viewBox="0 0 40 40">
    <path fill="#282725" d="M26.031 30.875l-1.054 1.055L13 19.965 24.977 8l1.054 1.055-10.898 10.91 10.898 10.91z" />
  </symbol>
  <symbol id="pause-button" viewBox="0 0 40 40">
    <path fill="#282725" d="M14 30V10h3.5v20H14zm9.5-20H27v20h-3.5V10z" />
  </symbol>
  <symbol id="search-button" viewBox="0 0 40 40">
    <path fill="#FFFCF9"
      d="M22.75 8a8.15 8.15 0 0 1 5.824 2.426A8.106 8.106 0 0 1 31 16.25a8.15 8.15 0 0 1-1.125 4.16 8.392 8.392 0 0 1-2.965 2.965 8.15 8.15 0 0 1-4.16 1.125 8.135 8.135 0 0 1-2.813-.492 8.45 8.45 0 0 1-2.46-1.418l-9.2 9.187A.72.72 0 0 1 7.75 32a.72.72 0 0 1-.527-.223A.72.72 0 0 1 7 31.25a.72.72 0 0 1 .223-.527l9.187-9.2a8.445 8.445 0 0 1-1.418-2.46 8.135 8.135 0 0 1-.492-2.813 8.15 8.15 0 0 1 1.125-4.16c.36-.61.79-1.164 1.29-1.664a8.39 8.39 0 0 1 1.675-1.301A8.152 8.152 0 0 1 22.75 8zm0 15a6.6 6.6 0 0 0 2.625-.527 6.936 6.936 0 0 0 2.145-1.453 6.77 6.77 0 0 0 1.44-2.145c.36-.82.54-1.695.54-2.625 0-.93-.18-1.805-.54-2.625a6.77 6.77 0 0 0-1.44-2.145 6.77 6.77 0 0 0-2.145-1.44 6.469 6.469 0 0 0-2.625-.54c-.93 0-1.805.18-2.625.54a6.77 6.77 0 0 0-2.145 1.44 6.936 6.936 0 0 0-1.453 2.145A6.594 6.594 0 0 0 16 16.25a6.6 6.6 0 0 0 .527 2.625c.36.82.844 1.535 1.453 2.145a6.936 6.936 0 0 0 2.145 1.453A6.6 6.6 0 0 0 22.75 23z" />
  </symbol>
  <symbol id="up-arrow-button" viewBox="0 0 40 40">
    <path fill="#FFFCF9" fill-opacity="0.5"
      d="M19 31a1 1 0 1 0 2 0h-2zm1.707-22.707a1 1 0 0 0-1.414 0l-6.364 6.364a1 1 0 0 0 1.414 1.414L20 10.414l5.657 5.657a1 1 0 0 0 1.414-1.414l-6.364-6.364zM21 31V9h-2v22h2z" />
  </symbol>
  <symbol id="up-arrow" viewBox="0 0 40 40">
    <path fill="#FFFCF9" d="M20.5 14L31 29H10l10.5-15z" />
  </symbol>
  <symbol id="up-button" viewBox="0 0 40 40">
    <path fill="#FFFCF9" d="M30.875 26.031l-10.91-10.898L9.055 26.03 8 24.977 19.965 13 31.93 24.977l-1.055 1.054z" />
  </symbol>
  <symbol id="same" viewBox="0 0 40 40">
    <path fill="#FFFCF9" fill-rule="evenodd"
      d="M10 32a2 2 0 0 1-2-2V10a2 2 0 0 1 2-2h20a2 2 0 0 1 2 2v20a2 2 0 0 1-2 2H10zm19-14H11v5h18v-5z"
      clip-rule="evenodd" />
  </symbol>
  <symbol id="error-icon" viewBox="0 0 12 12">
    <path fill="#E27762"
      d="M8.4 0H3.6A3.604 3.604 0 0 0 0 3.6v7.8a.6.6 0 0 0 .6.6h7.8c1.985 0 3.6-1.615 3.6-3.6V3.6C12 1.615 10.385 0 8.4 0zM6.6 9.6H5.4V8.4h1.2v1.2zm0-2.4H5.4V2.4h1.2v4.8z" />
  </symbol>
  <symbol id="star-symbol" viewBox="0 0 70 95">
    <path fill="#A37356"
      d="M35 0l4.266 13.129H53.07l-11.168 8.114 4.266 13.128L35 26.257l-11.168 8.114 4.266-13.128-11.168-8.114h13.804L35 0z" />
    <path stroke="#A37356" stroke-linecap="round" stroke-width="2" d="M1 51h68" />
    <path fill="#A37356"
      d="M20.36 67.225H15l11.913 27.72 8.016-17.447L42.816 95 55 67.225l-5.346.01-6.77 15.883-7.979-16.944-7.91 16.944-6.635-15.893z" />
  </symbol>
</svg>